<?xml version="1.0" encoding="UTF-8" standalone="no"?>
<!-- Created with Inkscape (http://www.inkscape.org/) -->

<svg
   version="1.1"
   id="svg1"
   width="594"
   height="594"
   viewBox="0 0 594 594"
   sodipodi:docname="xyz.uvos.aceradio.svg"
   inkscape:export-filename="icon64.png"
   inkscape:export-xdpi="10.343434"
   inkscape:export-ydpi="10.343434"
   inkscape:version="1.4.3 (0d15f75042, 2025-12-25)"
   xmlns:inkscape="http://www.inkscape.org/namespaces/inkscape"
   xmlns:sodipodi="http://sodipodi.sourceforge.net/DTD/sodipodi-0.dtd"
   xmlns="http://www.w3.org/2000/svg"
   xmlns:svg="http://www.w3.org/2000/svg">
  <defs
     id="defs1" />
  <sodipodi:namedview
     id="namedview1"
     pagecolor="#ffffff"
     bordercolor="#666666"
     borderopacity="1.0"
     inkscape:showpageshadow="2"
     inkscape:pageopacity="0.0"
     inkscape:pagecheckerboard="0"
     inkscape:deskcolor="#d1d1d1"
     showguides="true"
     inkscape:zoom="0.82324218"
     inkscape:cx="38.8707"
     inkscape:cy="407.535"
     inkscape:window-width="1920"
     inkscape:window-height="1054"
     inkscape:window-x="0"
     inkscape:window-y="0"
     inkscape:window-maximized="1"
     inkscape:current-layer="g2" />
  <g
     inkscape:groupmode="layer"
     inkscape:label="Image"
     id="g1"
     transform="translate(-231.08864,-212.23361)">
    <g
       id="g2"
       transform="translate(-920.59365,33.056133)">
      <rect
         style="fill:#ffffff;fill-rule:evenodd;stroke:#ffffff;stroke-width:0.656;stroke-linejoin:bevel;paint-order:stroke fill markers"
         id="rect1"
         width="327.36417"
         height="460.98221"
         x="1287.1224"
         y="297.61166"
         transform="translate(-10e-6)" />
      <path
         style="fill:#e2e0d7"
         d="m 1603.0739,772.33578 c 3.5619,-1.24064 6.8734,-3.61493 11.5134,-8.25495 10.1527,-10.15268 9.9975,-9.30173 9.9916,-54.7634 0,-21.52318 0.382,-38.25 0.88,-38.25 0.4868,0 1.5931,1.08064 2.4585,2.40143 3.8211,5.83176 17.12,7.25296 23.7426,2.53728 2.8626,-2.03834 4.7072,-2.42005 12.8677,-2.66273 11.8257,-0.35167 19.2587,-2.16545 29.5626,-7.21375 18.8594,-9.24005 34.0032,-27.39886 41.333,-49.56223 2.4554,-7.42443 4.7155,-18.34858 6.0978,-29.47377 1.3601,-10.94712 1.3638,-63.22189 0.01,-75.81564 -2.2579,-20.93112 -8.334,-39.04668 -17.7447,-52.90451 -8.3615,-12.31292 -25.1134,-25.13258 -37.6792,-28.83473 l -4.0283,-1.18691 -0.7209,-14.39222 c -0.3965,-7.91572 -0.5231,-14.95472 -0.2814,-15.64222 0.2568,-0.73023 2.1757,-1.25 4.6147,-1.25 h 4.1752 l -0.6725,-8.06339 c -0.3698,-4.43487 -1.7686,-13.57227 -3.1083,-20.30533 -16.4481,-82.66399 -77.22,-150.29919 -159.0068,-176.96431 -25.4836,-8.3085 -48.2307,-11.87388 -76,-11.91225 -23.59,-0.0326 -38.5382,1.6901 -59.4257,6.84849 -69.4011,17.13936 -126.2048,61.93639 -157.4669,124.18292 -12.3623,24.61497 -21.1744,54.1668 -23.1213,77.53875 l -0.7226,8.67512 h 4.6183 4.6182 v 15.41328 15.41328 l -6.4308,2.0776 c -27.1243,8.76295 -46.3553,34.12649 -53.1475,70.09584 -2.1513,11.39213 -3.1532,69.29739 -1.4767,85.33979 2.9743,28.45999 10.592,48.20641 24.4272,63.31913 14.3081,15.62924 32.8579,24.25877 53.0723,24.68963 7.7866,0.16597 9.502,0.5251 12.2414,2.56286 6.4255,4.77974 20.1349,3.34423 23.9707,-2.50998 0.8654,-1.32079 1.9717,-2.40143 2.4584,-2.40143 0.498,0 0.8946,17.16706 0.907,39.25 0.021,36.92104 0.1391,39.50824 1.9968,43.60205 3.9424,8.68803 11.48,15.64514 20.4812,18.90394 2.1039,0.76169 47.3567,1.11117 151.5,1.17001 138.7015,0.0784 148.83,-0.031 153.5,-1.65765 z m -299.5,-15.99146 c -2.9047,-1.11454 -6.5241,-4.4682 -8.7448,-8.1028 l -2.2449,-3.67409 -0.01,-214.78212 c 0,-179.14793 0.2212,-215.32374 1.3589,-218.04669 1.5894,-3.80406 6.6357,-8.34798 10.463,-9.42148 1.4701,-0.41234 67.5059,-0.74971 146.7461,-0.74971 h 144.0731 l 4.1571,2.75112 c 2.2865,1.51311 5.066,4.53268 6.1769,6.71016 2.0077,3.93548 2.0198,5.23406 2.0198,218.18316 0,213.72603 -0.01,214.23356 -2.0428,218.28984 -1.1235,2.23614 -3.468,5.19072 -5.2099,6.56572 l -3.1672,2.5 -146.0401,0.17622 c -80.3221,0.0969 -146.7152,-0.0828 -147.5402,-0.39933 z M 1583.5004,722.533 c 4.6345,-13.48838 9.0475,-25.41111 9.8067,-26.49495 0.8418,-1.20184 2.5285,-1.97062 4.3235,-1.97062 2.6037,0 2.9433,-0.34618 2.9433,-3 v -3 h -11.5 -11.5 v 3 c 0,2.7619 0.2778,3 3.5,3 1.925,0 3.5,0.26824 3.5,0.59609 0,0.32785 -0.7069,3.02785 -1.5709,6 l -1.571,5.40391 h -9.3903 -9.3903 l -1.5387,-5.1815 c -2.0431,-6.87967 -2.0607,-6.8185 1.9612,-6.8185 3.2223,0 3.5,-0.2381 3.5,-3 v -3 h -13 -13 v 2.93664 c 0,2.58219 0.3923,2.97447 3.25,3.25 4.2888,0.41352 5.4047,2.81918 14.25,30.72178 l 7,22.08143 5,2e-5 5,3e-5 z m -12.2773,11.53443 c -1.1824,-2.78306 -5.6492,-18.34116 -5.6492,-19.67623 0,-0.96259 1.7735,-1.32377 6.5,-1.32377 4.5703,0 6.4795,0.37109 6.4307,1.25 -0.1879,3.38671 -6.7136,21.08679 -7.2815,19.75 z m 8.5557,-71.1024 c 5.6623,-7.20631 11.7965,-15.07551 13.6314,-17.48711 l 3.3363,-4.38471 -13.6734,-17.06306 c -11.2877,-14.08599 -13.9231,-16.85577 -15.1049,-15.87499 -2.8615,2.3749 -26.5379,32.98044 -26.2205,33.89442 0.5516,1.58884 26.2804,33.92487 27.0311,33.97282 0.3877,0.0248 5.3377,-5.85105 11,-13.05737 z m -99.454,-62.71073 c 52.1618,-62.79428 59.3132,-71.6207 59.0282,-72.8535 -0.2374,-1.02662 -55.5985,-68.02887 -81.4212,-98.54202 l -8.2162,-9.70865 -45.0708,53.95395 c -24.789,29.67467 -45.0661,54.29356 -45.0602,54.70865 0.013,0.9281 0.1468,1.09174 39.5047,48.32951 17.6085,21.13386 36.01,43.26269 40.8923,49.17519 4.8823,5.9125 9.2633,10.75 9.7355,10.75 0.4722,0 14.2456,-16.11591 30.6077,-35.81313 z M 1347.4952,434.24294 c 8.3007,-10.86511 13.0217,-17.88178 12.662,-18.81917 -0.6339,-1.65184 -25.274,-33.04714 -26.5606,-33.84233 -1.1614,-0.71778 -28.1883,33.41292 -27.8258,35.13958 0.4624,2.20279 27.2186,36.25676 27.896,35.50467 0.3261,-0.36204 6.5489,-8.45428 13.8284,-17.98275 z m -24.1713,-60.99832 c 2.9051,-0.15838 3.25,-0.49559 3.25,-3.17719 0,-2.78161 -0.2639,-3 -3.625,-3 -3.4217,0 -3.594,-0.15419 -3.0727,-2.75 1.6534,-8.23378 1.6773,-8.25 12.1342,-8.25 h 9.4861 l 1.5387,5.1815 c 0.8463,2.84983 1.5387,5.32483 1.5387,5.5 0,0.17518 -1.3414,0.3185 -2.9809,0.3185 -2.3602,0 -3.1141,0.53027 -3.6201,2.54657 -0.3515,1.40061 -0.3683,2.81744 -0.037,3.1485 0.3311,0.33107 5.8976,0.64761 12.3701,0.70343 l 11.7681,0.1015 0.3134,-3.25 c 0.2982,-3.09309 0.1486,-3.25 -3.0999,-3.25 h -3.4133 l -8.2888,-24.75 c -4.5588,-13.6125 -8.6922,-25.5375 -9.1853,-26.5 -0.6238,-1.21769 -2.0917,-1.75 -4.8261,-1.75 -2.7271,0 -4.2097,0.53553 -4.845,1.75 -0.5035,0.9625 -3.9497,10.525 -7.6582,21.25 -10.9478,31.66082 -10.1966,30 -13.5686,30 -2.6426,0 -2.9282,0.32001 -2.9282,3.28089 v 3.28088 l 7.75,-0.10369 c 4.2625,-0.057 9.2125,-0.18343 11,-0.28089 z m 1.4927,-25.42719 c 0.2511,-0.6875 1.9439,-5.65786 3.7617,-11.04525 1.8178,-5.38739 3.646,-9.43739 4.0626,-9 0.9833,1.03225 5.933,17.38146 5.933,19.59685 0,1.43855 -1.0873,1.6984 -7.107,1.6984 -5.2624,0 -6.9884,-0.32442 -6.6503,-1.25 z m -53.2154,77.77902 c -1.2768,-1.35904 -3.8806,-2.98558 -5.7864,-3.61454 -5.0119,-1.65407 -13.7074,-0.68499 -17.2313,1.92036 -1.6107,1.19084 -3.1718,2.16516 -3.4691,2.16516 -1.1717,0 -0.5407,-26.59979 0.6595,-27.8 0.66,-0.66 3.585,-1.2 6.5,-1.2 2.915,0 5.3,-0.39171 5.3,-0.87047 0,-0.47876 0.922,-6.18015 2.0489,-12.66976 2.3042,-13.26934 7.3271,-29.7136 12.4137,-40.64071 l 3.4071,-7.31906 0.065,46.25 c 0.036,25.4375 -0.3064,46.25 -0.7605,46.25 -0.4542,0 -1.8703,-1.11194 -3.1471,-2.47098 z m 353.0468,-43.77902 0.074,-46.25 3.0152,6.5 c 7.0459,15.18938 10.8821,28.89391 14.3462,51.25 l 0.5811,3.75 h 5.2547 c 2.89,0 5.7946,0.54 6.4546,1.2 1.2003,1.20021 1.8313,27.8 0.6596,27.8 -0.2973,0 -1.8255,-0.95 -3.396,-2.11111 -5.7949,-4.28434 -16.9202,-3.70972 -22.467,1.16043 -1.8483,1.62288 -3.6387,2.95068 -3.9786,2.95068 -0.3399,0 -0.5846,-20.8125 -0.5439,-46.25 z m -310.0314,-98.30146 c 2.9388,-3.54102 17.1313,-14.62979 26.5016,-20.70606 23.6371,-15.32767 47.7895,-24.72335 76.9557,-29.937 15.5922,-2.78721 45.5694,-2.9968 61.462,-0.42973 39.5612,6.39022 74.4264,22.76478 104.538,49.0966 l 4,3.4979 -137.3724,0.0149 c -124.0217,0.0134 -137.2473,-0.1359 -136.0849,-1.53658 z"
         id="path4"
         sodipodi:nodetypes="sscssssssscsscssscssssssscccccsssssssssssssssccssscssssscsssssscccsssscccssscccssscccsssssssscsssssssscssssssssssssssssscsssssscsscssssssscssssssssssssssssscssssccsscssssssscssssscsss" />
      <path
         style="fill:#b82921"
         d="m 1285.4464,765.31743 c -1.2439,-1.58606 -1.2085,-1.62143 0.3775,-0.37756 1.6658,1.30637 2.1955,2.12756 1.3725,2.12756 -0.2077,0 -0.9952,-0.7875 -1.75,-1.75 z m 92.9558,-7.99992 c 39.7806,-0.1448 104.5806,-0.14478 144,5e-5 39.4195,0.14482 6.8717,0.2633 -72.3283,0.26327 -79.2,-2e-5 -111.4522,-0.11852 -71.6717,-0.26332 z m 221.1717,-2.62764 c 0,-0.20765 0.7875,-0.99515 1.75,-1.75 1.5861,-1.24387 1.6215,-1.2085 0.3776,0.37756 -1.3064,1.66575 -2.1276,2.19548 -2.1276,1.37244 z m -41.5,-29.71402 c -8.8453,-27.9026 -9.9612,-30.30826 -14.25,-30.72178 -2.8577,-0.27553 -3.25,-0.66781 -3.25,-3.25 v -2.93664 h 13 13 v 3 c 0,2.7619 -0.2777,3 -3.5,3 -4.0219,0 -4.0043,-0.0612 -1.9612,6.8185 l 1.5387,5.1815 h 9.3903 9.3903 l 1.571,-5.40391 c 0.864,-2.97215 1.5709,-5.67215 1.5709,-6 0,-0.32785 -1.575,-0.59609 -3.5,-0.59609 -3.2222,0 -3.5,-0.2381 -3.5,-3 v -3 h 11.5 11.5 v 3 c 0,2.65382 -0.3396,3 -2.9433,3 -1.795,0 -3.4817,0.76878 -4.3235,1.97062 -0.7592,1.08384 -5.1722,13.00657 -9.8067,26.49495 l -8.4265,24.52433 -5,-3e-5 -5,-2e-5 z m 20.4307,-10.65842 c 0.049,-0.87891 -1.8604,-1.25 -6.4307,-1.25 -4.7265,0 -6.5,0.36118 -6.5,1.32377 0,1.33507 4.4668,16.89317 5.6492,19.67623 0.5679,1.33679 7.0936,-16.36329 7.2815,-19.75 z m -23.4307,-54.83405 c -7.15,-9.07171 -13.1468,-16.91691 -13.3262,-17.4338 -0.3174,-0.91398 23.359,-31.51952 26.2205,-33.89442 1.1818,-0.98078 3.8172,1.789 15.1049,15.87499 l 13.6734,17.06306 -3.3363,4.38471 c -10.6583,14.00772 -24.0249,30.58323 -24.6314,30.54448 -0.3877,-0.0248 -6.5549,-7.46732 -13.7049,-16.53902 z m -320.2309,13.89106 c 0.9729,-0.25354 2.3229,-0.23687 3,0.0371 0.677,0.27393 -0.1191,0.48137 -1.7691,0.46099 -1.65,-0.0204 -2.2039,-0.2445 -1.2309,-0.49804 z m 426.4809,0.0307 c 0.6875,-0.27741 1.8125,-0.27741 2.5,0 0.6875,0.27741 0.125,0.50439 -1.25,0.50439 -1.375,0 -1.9375,-0.22698 -1.25,-0.50439 z m -301.75,-145.68478 c -0.2378,-0.2759 20.2819,-24.94161 45.0709,-54.61628 l 45.0708,-53.95395 8.2162,9.70865 c 25.8459,30.5406 82.0827,97.72156 81.4216,98.54395 -28.1165,34.97348 -42.9451,51.43856 -55.671,67.51376 -27.6546,34.93279 -34.3339,41.23367 -34.3339,41.23367 -24.4775,-27.57933 -61.312,-75.2602 -89.7746,-108.4298 z m 382.079,52.76374 c 0.048,-1.16495 0.2849,-1.4019 0.6041,-0.60417 0.2889,0.72187 0.2534,1.58438 -0.079,1.91667 -0.3322,0.33229 -0.5686,-0.25834 -0.5252,-1.3125 z m -583.9211,-1.41667 c 0,-1.375 0.227,-1.9375 0.5044,-1.25 0.2774,0.6875 0.2774,1.8125 0,2.5 -0.2774,0.6875 -0.5044,0.125 -0.5044,-1.25 z m 0.094,-40.5 c 0.011,-2.2 0.2159,-2.98225 0.4551,-1.73834 0.2392,1.24391 0.2301,3.04391 -0.02,4 -0.2503,0.95609 -0.446,-0.0617 -0.4349,-2.26166 z m -0.094,-19.5 c 0,-1.375 0.227,-1.9375 0.5044,-1.25 0.2774,0.6875 0.2774,1.8125 0,2.5 -0.2774,0.6875 -0.5044,0.125 -0.5044,-1.25 z m 583.9211,-0.58333 c 0.048,-1.16495 0.2849,-1.4019 0.6041,-0.60417 0.2889,0.72187 0.2534,1.58438 -0.079,1.91667 -0.3322,0.33229 -0.5686,-0.25834 -0.5252,-1.3125 z m -408.4652,-66.16581 c 0.1656,-0.27453 -0.5557,-1.23078 -1.603,-2.125 -3.0019,-2.5631 -26.0025,-32.48923 -26.0069,-33.83757 -0.01,-1.76698 27.0646,-35.36402 28.0188,-34.77428 1.2866,0.79519 25.9267,32.19049 26.5606,33.84233 0.3597,0.93739 -4.3613,7.95406 -12.662,18.81917 -11.3282,14.82788 -15.6195,20.2493 -14.3075,18.07535 z m -148.1138,-5.25086 c 0.9955,-1.1 2.035,-2 2.31,-2 0.275,0 -0.3145,0.9 -1.31,2 -0.9955,1.1 -2.0349,2 -2.3099,2 -0.275,0 0.3144,-0.9 1.3099,-2 z m 495.8741,-29.5 c 0,-6.05 0.167,-8.39607 0.366,-5.21349 0.1991,3.18258 0.1972,8.13258 0,11 -0.2013,2.86742 -0.3642,0.26349 -0.3619,-5.78651 z m -376.3741,-47.21911 c 0,-2.96088 0.2856,-3.28089 2.9282,-3.28089 3.372,0 2.6208,1.66082 13.5686,-30 3.7085,-10.725 7.1547,-20.2875 7.6582,-21.25 0.6353,-1.21447 2.1179,-1.75 4.845,-1.75 2.7344,0 4.2023,0.53231 4.8261,1.75 0.4931,0.9625 4.6265,12.8875 9.1853,26.5 l 8.2888,24.75 h 3.4133 c 3.2485,0 3.3981,0.15691 3.0999,3.25 l -0.3134,3.25 -11.7681,-0.1015 c -6.4725,-0.0558 -12.0391,-0.37236 -12.3701,-0.70343 -0.3311,-0.33106 -0.3143,-1.74789 0.037,-3.1485 0.506,-2.0163 1.2598,-2.54657 3.6201,-2.54657 1.6395,0 2.9809,-0.14332 2.9809,-0.3185 0,-0.17517 -0.6924,-2.65017 -1.5387,-5.5 l -1.5387,-5.1815 h -9.4861 c -10.4569,0 -10.4808,0.0162 -12.1342,8.25 -0.5213,2.59581 -0.349,2.75 3.0727,2.75 3.3611,0 3.625,0.21839 3.625,3 0,3.36751 0.4366,3.26157 -14.25,3.45808 l -7.75,0.10369 z m 34,-22.97929 c 0,-2.21539 -4.9497,-18.5646 -5.933,-19.59685 -0.4166,-0.43739 -2.2448,3.61261 -4.0626,9 -1.8178,5.38739 -3.5106,10.35775 -3.7617,11.04525 -0.3381,0.92558 1.3879,1.25 6.6503,1.25 6.0197,0 7.107,-0.25985 7.107,-1.6984 z m -23.7309,-61.99459 c 0.9729,-0.25354 2.3229,-0.23687 3,0.0371 0.677,0.27393 -0.1191,0.48137 -1.7691,0.46099 -1.65,-0.0204 -2.2039,-0.2445 -1.2309,-0.49804 z m 72.0585,-0.0569 c 34.5551,-0.14586 90.8051,-0.14583 125,6e-5 34.1948,0.14588 5.9224,0.26522 -62.8276,0.26519 -68.75,-3e-5 -96.7276,-0.1194 -62.1724,-0.26525 z m 191.4224,0.0265 c 1.7875,-0.22182 4.7125,-0.22182 6.5,0 1.7875,0.22183 0.325,0.40333 -3.25,0.40333 -3.575,0 -5.0375,-0.1815 -3.25,-0.40333 z m -311.75,-23.65416 c 0,-0.20765 0.7875,-0.99515 1.75,-1.75 1.5861,-1.24387 1.6215,-1.2085 0.3776,0.37756 -1.3064,1.66575 -2.1276,2.19548 -2.1276,1.37244 z m 354.4371,-12.87244 -2.9371,-3.25 3.25,2.93709 c 1.7875,1.6154 3.25,3.0779 3.25,3.25 0,0.77256 -0.8251,0.0924 -3.5629,-2.93709 z m -183.6246,-18.43311 c 0.7219,-0.28887 1.5844,-0.25335 1.9167,0.0789 0.3323,0.33229 -0.2583,0.56864 -1.3125,0.52522 -1.1649,-0.048 -1.4019,-0.28494 -0.6042,-0.60416 z m 24,0 c 0.7219,-0.28887 1.5844,-0.25335 1.9167,0.0789 0.3323,0.33229 -0.2583,0.56864 -1.3125,0.52522 -1.1649,-0.048 -1.4019,-0.28494 -0.6042,-0.60416 z m -34,-50 c 0.7219,-0.28887 1.5844,-0.25335 1.9167,0.0789 0.3323,0.33229 -0.2583,0.56864 -1.3125,0.52522 -1.1649,-0.048 -1.4019,-0.28494 -0.6042,-0.60416 z m 45,0 c 0.7219,-0.28887 1.5844,-0.25335 1.9167,0.0789 0.3323,0.33229 -0.2583,0.56864 -1.3125,0.52522 -1.1649,-0.048 -1.4019,-0.28494 -0.6042,-0.60416 z m -26.036,-1.05039 c 2.352,-0.21124 5.952,-0.20827 8,0.007 2.0479,0.21487 0.1235,0.38771 -4.2765,0.38408 -4.4,-0.004 -6.0756,-0.17944 -3.7235,-0.39069 z"
         id="path3"
         sodipodi:nodetypes="ssssssssssssssscccssscccsssscccsssscccsssssssssscsssssssssssssscssscsssssssssssssssssssssssssscssssssssssssssssssssscsscsssssscssssscssssssssssssssssssssssssscsssssssssssssssssssssssccccc" />
      <path
         style="fill:#212225"
         d="m 1299.0739,772.67526 c -9.0643,-2.88176 -16.5984,-9.23708 -20.681,-17.44531 -2.2937,-4.61176 -2.322,-5.10069 -2.6015,-44.91252 -0.1554,-22.1375 -0.6418,-40.25 -1.081,-40.25 -0.4392,0 -1.3598,1.04881 -2.0458,2.33068 -2.9608,5.53225 -13.0287,8.11041 -20.5118,5.2526 -2.4317,-0.92869 -4.9619,-2.33985 -5.6225,-3.13591 -0.8882,-1.07014 -3.5854,-1.44737 -10.3489,-1.44737 -27.4458,0 -52.7712,-16.74321 -66.1396,-43.7263 -9.071,-18.30921 -11.659,-33.99169 -12.0917,-73.2737 -0.5601,-50.84241 2.8421,-71.44603 15.3548,-92.98904 8.2422,-14.19037 25.7176,-28.58323 40.1077,-33.03282 l 5.6613,-1.75055 0.2754,-15.6138 0.2754,-15.61379 h -4.6429 -4.6428 l 0.7063,-7.75 c 2.1797,-23.91698 11.3289,-55.01743 23.0071,-78.20724 14.2867,-28.36957 37.468,-57.39297 60.9185,-76.2711 35.1758,-28.31714 76.0624,-46.18562 121.103,-52.925 13.9393,-2.08572 57.0522,-1.81019 71.1627,0.45479 35.4286,5.68694 69.9067,18.97133 98.4015,37.91401 16.3309,10.85642 24.9612,18.00897 38.5109,31.91677 34.5938,35.50807 56.8776,80.39754 63.8141,128.54966 2.41,16.72966 2.4829,16.31811 -2.8892,16.31811 h -4.5 v 15.36605 15.36605 l 7.5045,2.73703 c 23.8306,8.69151 42.2363,30.64754 49.5,59.04821 3.8351,14.99524 4.4955,23.8071 4.4955,59.98266 0,29.20746 -0.3022,36.82051 -1.8262,46 -6.594,39.71863 -26.7098,65.40783 -59.0291,75.38394 -5.0107,1.54666 -9.502,2.11606 -16.691,2.11606 -6.0968,0 -10.095,0.41972 -10.518,1.10413 -1.0897,1.76321 -8.6587,4.85043 -11.9357,4.86833 -5.1026,0.0279 -10.2854,-1.91178 -13.3817,-5.00805 -1.6304,-1.63043 -3.2044,-2.96441 -3.4978,-2.96441 -0.2934,0 -0.6655,17.6625 -0.8269,39.25 l -0.2936,39.25 -2.7704,5.64151 c -3.0733,6.25802 -9.257,12.50306 -15.8802,16.03745 l -4.3494,2.32104 -149,0.18976 c -118.2133,0.15055 -149.8265,-0.073 -153,-1.08193 z m 297.2456,-16.14597 c 4.7535,-1.98614 7.022,-4.0894 9.3676,-8.6853 1.8522,-3.629 1.8939,-9.19819 1.6436,-219.5779 l -0.2568,-215.85447 -2.8915,-3.79093 c -1.5903,-2.08501 -4.8188,-4.64344 -7.1742,-5.68538 -4.1479,-1.83481 -8.8287,-1.88616 -148.6865,-1.63116 l -144.4038,0.26328 -3.7571,2.86583 c -2.0664,1.57621 -4.6189,4.27621 -5.6721,6 -1.8732,3.06573 -1.9096,7.86357 -1.6649,219.71207 l 0.2501,216.5779 2.7038,3.5447 c 1.487,1.94958 4.637,4.50167 7,5.67131 l 4.2962,2.12661 142.7822,7.9e-4 c 126.2298,7e-4 143.2088,-0.17752 146.4634,-1.53735 z M 1275.5739,382.06743 c 0,-25.3 -0.192,-46 -0.4267,-46 -0.8534,0 -5.8276,11.74195 -9.1525,21.60546 -3.3328,9.8865 -6.5243,23.65762 -7.9131,34.14454 l -0.6953,5.25 h -5.7992 c -4.3656,0 -5.9492,0.39102 -6.4062,1.58179 -0.5666,1.47652 -0.9045,27.42319 -0.357,27.41402 0.1375,-0.002 2.4638,-1.1273 5.1695,-2.5 2.9032,-1.47285 6.592,-2.48681 9,-2.47385 4.4818,0.0241 11.3028,2.72126 13.453,5.31956 0.7548,0.91216 1.7673,1.65848 2.25,1.65848 0.4907,0 0.8775,-20.2789 0.8775,-46 z m 352.1276,44.34152 c 2.1502,-2.5983 8.9711,-5.29544 13.453,-5.31956 2.408,-0.013 6.0968,1.001 9,2.47385 2.7057,1.3727 5.0319,2.4977 5.1694,2.5 0.1375,0.002 0.25,-5.98081 0.25,-13.29581 0,-9.01111 -0.3869,-13.68697 -1.2,-14.5 -0.66,-0.66 -3.5332,-1.2 -6.3849,-1.2 h -5.185 l -1.1568,-7.91153 c -1.8308,-12.52108 -5.7495,-27.42159 -10.1074,-38.43279 -7.3661,-18.61192 -6.8907,-20.74468 -6.9304,31.09432 -0.02,25.89143 0.3508,46.25 0.8421,46.25 0.4826,0 1.4951,-0.74632 2.25,-1.65848 z m -40.1276,-141.27958 c 0,-1.51061 -16.6426,-14.83968 -27.1309,-21.72909 -23.9508,-15.73255 -48.3567,-25.3765 -77.3691,-30.57231 -15.8612,-2.84058 -49.928,-3.05447 -64.2768,-0.40357 -30.4604,5.62747 -55.9061,15.63152 -79.1765,31.12849 -13.6701,9.1036 -25.9808,19.37846 -26.0314,21.7264 -0.01,0.39152 61.6347,0.73006 136.9847,0.75231 85.142,0.0251 137,-0.31638 137,-0.90223 z"
         id="path2"
         sodipodi:nodetypes="sssssssssssscccccssssssssscccssssssssssscsscssssscssscssscsscsssssscsscsssssssscssscsssssssssscss" />
    </g>
  </g>
</svg>
